<?xml version="1.0" encoding="UTF-8"?><svg id="Capa_1" xmlns="http://www.w3.org/2000/svg" xmlns:xlink="http://www.w3.org/1999/xlink" viewBox="0 0 83.74 83.26"><defs><style>.cls-1{clip-path:url(#clippath-2);}.cls-2{fill:#faad1a;}.cls-2,.cls-3,.cls-4,.cls-5,.cls-6{stroke-width:0px;}.cls-2,.cls-4,.cls-5,.cls-6{fill-rule:evenodd;}.cls-7{clip-path:url(#clippath-1);}.cls-3{clip-rule:evenodd;fill:none;}.cls-4{opacity:.19;}.cls-8{clip-path:url(#clippath);}.cls-5{fill:#1e4862;}.cls-6{fill:#1f4962;}</style><clipPath id="clippath"><path class="cls-3" d="m4.22,68.64c4.41,7.09,12.52,11.49,23.26,11.49,21.27,0,44.83-17.27,52.57-38.54,7.74-21.27-3.24-38.54-24.51-38.54-10.73,0-22.05,4.4-31.62,11.49,5.55-2.65,11.42-4.16,17.08-4.16,17.23,0,26.13,13.99,19.86,31.22-6.27,17.23-25.35,31.22-42.58,31.22-5.67,0-10.43-1.51-14.06-4.16Z"/></clipPath><clipPath id="clippath-1"><path class="cls-3" d="m78.79,14.53c-4.41-7.09-12.52-11.49-23.26-11.49C34.26,3.05,10.7,20.32,2.96,41.59c-7.74,21.27,3.24,38.54,24.51,38.54,10.73,0,22.05-4.4,31.62-11.49-5.55,2.65-11.42,4.16-17.08,4.16-17.23,0-26.13-13.99-19.86-31.22,6.27-17.23,25.35-31.22,42.58-31.22,5.67,0,10.43,1.51,14.06,4.16Z"/></clipPath><clipPath id="clippath-2"><path class="cls-3" d="m57.47,48.67c-8.24,13.82-24.4,24.14-39.2,24.14-5.67,0-10.43-1.51-14.06-4.16,4.41,7.09,12.52,11.49,23.26,11.49,17.25,0,36.01-11.36,46.61-27-3.49-2.82-9.07-4.12-16.62-4.46Z"/></clipPath></defs><path class="cls-2" d="m4.22,68.64c4.41,7.09,12.52,11.49,23.26,11.49,21.27,0,44.83-17.27,52.57-38.54,7.74-21.27-3.24-38.54-24.51-38.54-10.73,0-22.05,4.4-31.62,11.49,5.55-2.65,11.42-4.16,17.08-4.16,17.23,0,26.13,13.99,19.86,31.22-6.27,17.23-25.35,31.22-42.58,31.22-5.67,0-10.43-1.51-14.06-4.16Z"/><g class="cls-8"><path class="cls-2" d="m0,62.06c2.68,7.15,8.85,12.26,17.85,13.62,17.83,2.68,40.03-10.4,49.56-29.21,9.53-18.8,2.79-36.25-15.04-38.93-9-1.35-19.11,1.31-28.14,6.69,5.03-1.76,10.16-2.43,14.91-1.71,14.44,2.17,19.89,16.3,12.18,31.53-7.72,15.23-25.7,25.83-40.14,23.66-4.75-.72-8.53-2.72-11.19-5.64Z"/><path class="cls-4" d="m83.74,23.96c-.41-9.21-4.9-16.98-13.34-21.06C53.67-5.19,27.7,4.22,12.45,23.89c-15.25,19.67-14.05,42.22,2.68,50.31,8.44,4.08,19.24,3.71,29.81-.19-5.5.7-10.77.08-15.23-2.07-13.55-6.55-14.52-24.81-2.17-40.74,12.35-15.93,33.38-23.55,46.93-17,4.46,2.16,7.55,5.58,9.26,9.77Z"/></g><path class="cls-5" d="m78.79,14.53c-4.41-7.09-12.52-11.49-23.26-11.49C34.26,3.05,10.7,20.32,2.96,41.59c-7.74,21.27,3.24,38.54,24.51,38.54,10.73,0,22.05-4.4,31.62-11.49-5.55,2.65-11.42,4.16-17.08,4.16-17.23,0-26.13-13.99-19.86-31.22,6.27-17.23,25.35-31.22,42.58-31.22,5.67,0,10.43,1.51,14.06,4.16Z"/><g class="cls-7"><path class="cls-6" d="m80.01,17.96c-3.94-6.33-11.18-10.26-20.77-10.26-18.99,0-40.03,15.42-46.94,34.42-6.91,18.99,2.9,34.41,21.89,34.41,9.58,0,19.69-3.93,28.23-10.26-4.95,2.36-10.19,3.71-15.25,3.71-15.38,0-23.33-12.49-17.73-27.87s22.64-27.87,38.02-27.87c5.06,0,9.32,1.35,12.55,3.71Z"/><path class="cls-4" d="m.04,57.49c-.12,9.39,3.84,17.51,11.89,22.09,15.94,9.07,41.93.81,58.01-18.44,16.07-19.24-1.37-23.77-14.39-8.18-13.02,15.59-34.07,22.28-46.98,14.93-4.25-2.42-7.09-6.05-8.53-10.4Z"/></g><path class="cls-2" d="m57.47,48.67c-8.24,13.82-24.4,24.14-39.2,24.14-5.67,0-10.43-1.51-14.06-4.16,4.41,7.09,12.52,11.49,23.26,11.49,17.25,0,36.01-11.36,46.61-27-3.49-2.82-9.07-4.12-16.62-4.46Z"/><g class="cls-1"><path class="cls-2" d="m0,62.06c2.68,7.15,8.85,12.26,17.85,13.62,17.83,2.68,40.03-10.4,49.56-29.21,9.53-18.8,2.79-36.25-15.04-38.93-9-1.35-19.11,1.31-28.14,6.69,5.03-1.76,10.16-2.43,14.91-1.71,14.44,2.17,19.89,16.3,12.18,31.53-7.72,15.23-25.7,25.83-40.14,23.66-4.75-.72-8.53-2.72-11.19-5.64Z"/></g></svg>